<?xml version="1.0" standalone="no"?>
<!DOCTYPE svg PUBLIC "-//W3C//DTD SVG 20010904//EN"
 "http://www.w3.org/TR/2001/REC-SVG-20010904/DTD/svg10.dtd">
<svg version="1.0" xmlns="http://www.w3.org/2000/svg"
 width="1600.000000pt" height="1600.000000pt" viewBox="0 0 1600.000000 1600.000000"
 preserveAspectRatio="xMidYMid meet">

<g transform="translate(0.000000,1600.000000) scale(0.100000,-0.100000)"
fill="#000000" stroke="none">
<path d="M3330 15163 c-715 -40 -1384 -294 -1931 -731 -603 -482 -1019 -1163
-1168 -1911 -59 -297 -56 -144 -56 -2861 0 -2745 -4 -2553 56 -2852 104 -521
342 -1018 682 -1428 99 -120 274 -298 397 -405 558 -483 1293 -774 2026 -802
l161 -6 7 -163 c36 -892 395 -1670 1055 -2287 462 -433 1087 -735 1736 -841
256 -42 186 -41 3380 -41 2896 0 3068 1 3205 18 651 82 1228 322 1721 715 697
557 1138 1370 1219 2247 14 151 14 4889 0 5040 -55 590 -278 1166 -639 1648
-177 236 -440 496 -681 674 -534 394 -1188 626 -1836 650 l-161 6 -6 171 c-37
1034 -567 1988 -1432 2578 -452 309 -933 488 -1520 566 -107 14 -435 16 -3140
17 -1661 1 -3045 0 -3075 -2z m6150 -1016 c266 -41 487 -107 699 -208 660
-315 1113 -878 1271 -1582 27 -117 50 -320 50 -434 l0 -93 -2502 -3 -2503 -2
-140 -23 c-401 -65 -708 -164 -1050 -337 -884 -447 -1519 -1260 -1729 -2215
-75 -343 -76 -373 -76 -2336 l0 -1744 -69 0 c-296 0 -679 94 -976 240 -715
350 -1190 1023 -1275 1805 -14 128 -13 4769 0 4906 51 501 270 964 629 1333
200 205 387 340 641 465 296 146 584 222 905 241 72 4 1453 6 3070 6 2739 -2
2948 -3 3055 -19z m3261 -3327 c460 -45 925 -241 1280 -538 171 -143 349 -347
473 -542 116 -182 237 -477 285 -695 54 -245 52 -119 48 -2765 -3 -2694 2
-2454 -63 -2720 -73 -298 -247 -638 -449 -879 -133 -160 -331 -337 -510 -458
-227 -152 -528 -277 -810 -336 -258 -54 -104 -52 -3330 -52 -3221 0 -3055 -3
-3324 51 -261 52 -592 190 -816 340 -474 318 -811 784 -950 1316 -75 290 -69
71 -73 2708 -2 1660 0 2404 8 2495 58 687 432 1309 1020 1698 303 200 652 328
1017 372 138 17 6027 21 6194 5z"/>
</g>
</svg>
